/* XPM */
static char *dummy[]={
"32 32 219 2",
".0 c #000000",
"as c #000001",
".Q c #010101",
"#h c #020202",
"aM c #020205",
"#v c #030303",
"#C c #03030e",
"#W c #040404",
"#. c #050505",
"a7 c #060606",
"b. c #060610",
"b# c #060611",
"bg c #070707",
"#D c #07070e",
"#E c #070710",
"ab c #070711",
"a# c #080808",
"#J c #08080c",
"aR c #080912",
"#R c #090911",
"#B c #090a0f",
"ba c #0a0912",
"#z c #0a0a0a",
"#S c #0a0a10",
"#6 c #0a0a12",
"#P c #0a0a13",
"aQ c #0b0b11",
"#c c #0c0c0c",
"al c #0c0d13",
"a6 c #0d0c13",
"bl c #0d0d0d",
"aE c #0d0d10",
"a5 c #0d0d11",
"#F c #0d0d12",
"#q c #0e0e0e",
"au c #0e0e11",
"bb c #0e0f13",
".t c #0f0f0f",
"#Q c #0f0f12",
"#I c #0f0f13",
"aS c #0f1011",
"a9 c #0f1012",
".q c #101010",
"#w c #101011",
"#X c #101012",
"#T c #101013",
"#A c #101111",
"#n c #111111",
"#x c #111112",
"bc c #111212",
"#Y c #12100d",
"aZ c #121211",
".Z c #121212",
"aP c #121312",
".s c #131313",
"aT c #141310",
".r c #141414",
"aF c #151409",
"aV c #15150c",
"aU c #15150e",
"#m c #151515",
"a. c #161512",
"aW c #16160d",
"#r c #161616",
".y c #171717",
"#t c #191919",
"#g c #1a1a1a",
"#7 c #1b1b08",
"aY c #1b1b0e",
"bk c #1b1b1b",
"aX c #1c1c0c",
"a0 c #1c1c0e",
".z c #1c1c1c",
".p c #1d1d1d",
".Y c #1e1e1e",
".F c #1f1f1f",
".n c #202020",
"a4 c #21210c",
".P c #212121",
".o c #222222",
".E c #232323",
"#O c #24230e",
".9 c #242424",
".O c #262626",
".D c #272727",
".J c #292929",
"#i c #2a2a2a",
".X c #2b2b2b",
".7 c #2c2c2c",
"ak c #2d2e0e",
".8 c #2e2e2e",
".C c #2f2f2f",
".U c #303030",
".W c #313131",
"## c #383838",
"#5 c #38390e",
"am c #3a391b",
"#K c #3b3b13",
"#l c #3b3b3b",
"av c #3d3f0e",
"ar c #3e3e0e",
"#f c #3e3e3e",
".1 c #3f3f3f",
".4 c #404040",
"a3 c #404109",
"#9 c #40411d",
".m c #414141",
"aL c #42440e",
".x c #434343",
"#8 c #46460f",
".R c #474747",
"aa c #484848",
".B c #4a4a4a",
"#o c #4c4c4c",
"bw c #4e4e4e",
"bv c #4f4f4f",
".A c #505050",
"bx c #515151",
".N c #525252",
"a2 c #565500",
"bh c #595959",
"#V c #5b5b5b",
".e c #5c5c5c",
"a1 c #5d5d0b",
".f c #5e5e5e",
"aN c #5f5f60",
"bo c #626262",
".M c #686868",
"bu c #6b6b6b",
"bf c #6c6c6c",
"ac c #6f6f0a",
".K c #6f6f6f",
"#N c #72711b",
"aw c #727203",
".u c #727272",
"aD c #74740d",
"#d c #747474",
"bp c #757575",
"bd c #767676",
"bm c #777777",
".l c #787878",
"aO c #7c7c7c",
".d c #7e7e7e",
".3 c #828282",
"bt c #838383",
"ax c #848300",
"#L c #84831f",
".G c #858585",
"#Z c #878842",
"aK c #888808",
".g c #8b8b8b",
"ay c #909004",
".T c #909090",
"#H c #919191",
"a8 c #929292",
"#e c #959595",
"az c #9a9b07",
"aA c #9c9c07",
"#p c #9e9e9e",
"#M c #9e9f35",
"aq c #9fa009",
"#4 c #a0a004",
"aB c #a0a008",
".c c #a2a2a2",
"at c #a3a3a3",
"aJ c #a6a50a",
".V c #a6a6a6",
".I c #a9a9a9",
"aj c #aaa905",
"bs c #aaaaaa",
".h c #acacac",
"aC c #aeae06",
"ah c #b1af01",
"ag c #b2b000",
"#b c #b3b3b3",
".k c #b8b8b8",
"ai c #b9b703",
".L c #bcbcbc",
".b c #c0c0c0",
"#3 c #c1c018",
"aG c #c5c53b",
"bq c #c9c9c9",
"#U c #cccccc",
".w c #d1d1d1",
"af c #d3d30e",
"an c #d5d572",
"#a c #d5d5d5",
"bj c #d8d8d8",
".v c #d9d9d9",
"aI c #dadb19",
".i c #dbdbdb",
"ap c #dddd5d",
"be c #dddddd",
".a c #dfdfdf",
"#j c #e1e1e1",
".5 c #e2e2e2",
"br c #e3e3e3",
".S c #e4e4e4",
"#u c #e7e7e7",
".6 c #e8e8e8",
"bi c #eaeaea",
"#G c #ebebeb",
"#y c #ececec",
"by c #ededed",
".2 c #f0f0f0",
"#2 c #f2f13d",
"#s c #f2f2f2",
"#k c #f6f6f6",
"#0 c #f7f7c3",
"ae c #f8f75e",
".H c #f9f9f9",
".# c #fafafa",
"bn c #fcfcfc",
".j c #fefefe",
"ao c #ffff45",
"ad c #ffff52",
"aH c #ffff7b",
"#1 c #ffff7e",
"Qt c #ffffff",
"QtQtQtQtQtQtQtQtQtQtQtQtQtQtQtQtQtQtQtQtQtQtQtQtQtQtQtQtQtQtQtQt",
"QtQtQtQtQtQtQtQtQtQtQtQtQtQtQtQtQtQtQtQtQtQtQtQtQtQtQtQtQtQtQtQt",
"QtQtQtQtQtQtQtQtQtQtQtQtQtQtQtQtQtQtQtQtQtQtQtQtQtQtQtQtQtQtQtQt",
"QtQtQtQtQtQtQtQtQtQtQtQtQtQtQtQtQtQtQtQtQtQtQtQtQtQtQtQtQtQtQtQt",
"QtQtQtQtQtQtQtQtQtQtQtQtQtQtQtQtQtQtQtQtQtQtQtQtQtQtQtQtQtQtQtQt",
"QtQtQtQtQtQtQtQtQtQtQtQtQtQtQtQtQtQtQtQtQtQtQtQtQtQtQtQtQtQtQtQt",
"QtQtQtQtQtQtQtQtQtQtQtQtQtQtQtQtQtQtQtQtQtQtQtQtQtQtQtQtQtQtQtQt",
"QtQtQtQtQtQtQtQtQtQtQtQtQtQtQtQtQtQtQtQtQtQtQtQtQtQtQtQtQtQtQtQt",
"QtQtQtQtQtQtQtQtQtQtQtQtQtQtQtQtQtQtQtQtQtQtQtQtQtQtQtQtQtQtQtQt",
"QtQtQtQtQtQtQtQtQtQtQtQtQtQtQtQtQtQtQtQtQtQtQtQtQtQtQtQtQtQtQtQt",
"QtQtQtQtQtQtQtQtQtQtQt.#.a.b.c.d.e.f.g.h.iQtQtQtQtQtQtQtQtQtQtQt",
"QtQtQtQtQtQtQtQt.j.k.l.m.n.o.p.q.r.s.t.r.p.u.vQtQtQtQtQtQtQtQtQt",
"QtQtQtQtQtQtQt.w.x.y.z.A.B.C.D.o.E.E.o.o.F.q.z.G.HQtQtQtQtQtQtQt",
"QtQtQtQtQtQt.I.J.K.L.B.M.N.O.P.o.o.o.o.o.E.P.q.Q.R.SQtQtQtQtQtQt",
"QtQtQtQtQt.T.U.bQt.V.W.X.O.o.o.o.o.o.o.E.Y.r.Z.Z.0.1.2QtQtQtQtQt",
"QtQtQtQt.3.4.5.6.K.7.8.D.P.o.o.o.o.o.9.z.Z.Z.Z.Z.s#.###aQtQtQtQt",
"QtQtQt#b#c#d#e#f.9.J.9.P.o.o.o.o.E.o#g.Z.Z.Z.Z.Z.Z.Z#h#i#jQtQtQt",
"QtQt#k#l.y.F#g.F.o.P.o.o.o.o.E.o.p#m#n.Z.Z.Z.Z.Z.Z.Z.s#h#o.HQtQt",
"QtQt#p#q.E.P.P.o.o.o.o.E.E.P.z#r.Z#n.Z.Z.Z.Z.Z.Z.Z.Z.Z.Z.0#eQtQt",
"Qt#s.U#t.E.E.o.o.E.E.o.F#t.r.Z#n.Z.Z.Z.Z.Z.Z.Z.Z.Z.Z.Z.Z#c.E#uQt",
"Qt#p#v#r.z.F.n.F.Y#g#m.Z#w#x.Z.Z.Z.Z.Z.Z.Z.Z.Z.Z.Z.Z.Z.Z.Z#h.MQt",
"#y#i#z.Z#n.Z.Z.Z.Z#A#B#C#D#E#F.Z.Z.Z.Z.Z.Z.Z.Z.Z.Z.Z.Z.Z.Z#q#g#G",
"#H.Q.Z.Z.Z.Z.Z.Z#I#J#K#L#M#N#O#P.Z.Z.Z.Z.Z.Z.Z.Z.Z#Q#R#S#T.q.t#U",
"#V#W.Z.Z.Z.Z.Z#X#Y#Z#0#1#2#3#4#5#6.Z.Z.Z.Z.Z.Z.Z#S#7#8#9a.#Fa#.I",
"aa#..Z.Z.Z.Z.Zabacadaeafagahaiajakal.Z.Z.Z.Z.Z#Samanaoapaqaras.d",
"at#..t.Z.Z.Z.ZauavawaxayazaAaBaCaDaE.Z.Z.Z.Z#XaFaGaHaIaJaKaLaMaN",
"QtaO.0#c.s.Z.ZaPaQaRaSaTaUaVaWaXaYaZ.Z.Z.Z.Z#Qa0a1a2a3a4a5a6a7.N",
"Qt.ja8.Y#h#q.Z.Z.Z.Z#x#X#T#T#T#I#T.Z.Z.Z.Z.Z.Za9b.b#babb#xbc.0bd",
"QtQtQtbebf#r#vbg#q.Z.Z.Z.Z.Z.Z.Z.Z.Z.Z.Z.Z.Z.Z.Z.Z.Z.Z.s#q.Qbhbi",
"QtQtQtQtQtbj.d.Rbka7#v#q#n.Z.Z.Z.Z.Z.Z.Z.Z.Z.Z.Z.qbla#.0blbmbnQt",
"QtQtQtQtQtQtQtQt.5atbo.zbg#h.0.Q#.bga#bgbg#..0#W.t.z.1bpbqQtQtQt",
"QtQtQtQtQtQtQtQtQtQtQtbrbs.Tbtbubhbv#obwbx#V.l#pbqbybnQtQtQtQtQt"};
